<svg style="position: absolute; width: 0; height: 0; overflow: hidden;" aria-hidden="true" version="1.1" xmlns="http://www.w3.org/2000/svg" xmlns:xlink="http://www.w3.org/1999/xlink">
    <style>
        .default-palette, .palette0 {color: currentColor;
            --color0: #9b9faa;
            --color1: #fc842d;
            --color2: #212121;
        }
    </style>
    <defs>
        <symbol id="logo-png1" viewBox="0 0 71 66" fill="none" xmlns:xlink="http://www.w3.org/1999/xlink">
            <path fill="url(#a)" d="M0 0h70.25v66H0z" />
            <defs>
                <pattern id="a" width="1" height="1" patternContentUnits="objectBoundingBox" />
            </defs>
        </symbol>
        <symbol id="deletex" viewBox="0 0 14 14" fill="none">
            <path stroke-width="2" stroke="var(--color0, #9b9faa)" d="M0.707 0.707l12 12M0.707 12.707l12-12" />
        </symbol>
        <symbol id="logotxt" viewBox="0 0 106 16" fill="none">
            <path fill="var(--color2, #212121)" d="M0 13.582l0.729-0.845q1.288 1.182 2.545 1.721 1.256 0.528 2.894 0.528 1.69 0 2.756-0.855 1.067-0.855 1.067-2.197 0-0.844-0.349-1.405Q9.304 9.97 8.354 9.516q-0.94-0.454-2.64-0.803-2.736-0.559-3.93-1.553-1.181-1.003-1.181-2.745 0-1.701 1.383-2.841 1.384-1.14 3.485-1.141 1.605 0 2.798 0.444 1.194 0.432 2.387 1.394L9.949 3.158Q8.903 2.25 7.805 1.848a6.8 6.8 0 0 0-2.377-0.401q-1.647 0-2.672 0.834-1.024 0.825-1.024 2.07 0 0.856 0.338 1.426 0.348 0.56 1.32 1.045 0.982 0.475 2.746 0.835 2.63 0.539 3.802 1.531 1.183 0.993 1.183 2.683 0 1.815-1.415 2.978Q8.29 15.999 6.094 16q-1.785 0-3.253-0.591Q1.383 14.817 0 13.58M16.452 15.789V0h1.056v15.789zM23.442 1.88V0.433h1.31V1.88zM23.569 15.789V4.763h1.056v11.026zM30.527 15.789V4.763h1.067v1.964q0.306-0.485 0.612-0.844 0.306-0.36 0.74-0.687a3.3 3.3 0 0 1 1.024-0.517q0.591-0.18 1.299-0.18 1.352 0 2.281 0.665a4.25 4.25 0 0 1 1.436 1.711Q40.37 4.5 42.968 4.5q1.954 0 3.094 1.257t1.14 3.348v6.685h-1.055V9.23q0-1.774-0.866-2.767-0.867-0.992-2.398-0.992-1.457 0-2.47 1.056-1.015 1.055-1.015 2.84v6.422h-1.056V9.167q0-1.71-0.876-2.704-0.867-0.992-2.345-0.992t-2.503 1.15q-1.024 1.142-1.024 2.81v6.358z" />
            <path fill="var(--color1, #fc842d)" d="M52.795 15.204V0.059h1.056l6.083 8.956 6.073-8.956h1.066v15.145h-1.13V2.055l-5.988 8.713h-0.084l-5.999-8.713v13.149zM72.31 9.69q0-1.15 0.433-2.207a5.9 5.9 0 0 1 1.172-1.837 5.4 5.4 0 0 1 1.806-1.257 5.5 5.5 0 0 1 2.27-0.475q1.596 0 2.894 0.792a5.4 5.4 0 0 1 2.028 2.112q0.729 1.32 0.729 2.873a5.8 5.8 0 0 1-0.729 2.862 5.64 5.64 0 0 1-2.049 2.122q-1.309 0.793-2.915 0.793a5.5 5.5 0 0 1-2.249-0.465 5.5 5.5 0 0 1-1.795-1.246 5.9 5.9 0 0 1-1.173-1.838 6 6 0 0 1-0.422-2.228M73.45 9.691q0 1.997 1.31 3.39 1.32 1.384 3.232 1.384a4.2 4.2 0 0 0 2.239-0.633q1.035-0.644 1.647-1.743a4.84 4.84 0 0 0 0.613-2.397q0-1.986-1.331-3.38-1.33-1.404-3.21-1.404-1.225 0-2.26 0.644a4.54 4.54 0 0 0-1.638 1.742 4.9 4.9 0 0 0-0.602 2.398M88.625 15.204V4.178h1.067v1.964q0.306-0.486 0.612-0.845 0.306-0.36 0.74-0.686a3.3 3.3 0 0 1 1.024-0.518q0.591-0.18 1.299-0.18 1.351 0 2.281 0.666a4.25 4.25 0 0 1 1.436 1.711q1.384-2.376 3.982-2.376 1.954 0 3.094 1.257 1.141 1.256 1.141 3.347v6.686h-1.056V8.645q0-1.774-0.866-2.767-0.867-0.993-2.398-0.993-1.457 0-2.47 1.057-1.015 1.056-1.015 2.84v6.422H96.44V8.582q0-1.71-0.876-2.704-0.867-0.993-2.345-0.993t-2.503 1.152q-1.024 1.14-1.024 2.809v6.358z" />
        </symbol>
        <symbol id="baselinex" viewBox="0 0 24 24" fill="none">
            <path stroke-width="2" stroke="currentColor" d="M5 5 19 19M5 19 19 5" />
            <defs>
                <clipPath id="a1">
                    <path fill="#fff" d="M0 0h24v24H0z" />
                </clipPath>
            </defs>
        </symbol>
        <symbol id="back" viewBox="0 0 15 9" fill="none">
            <path stroke-width="2" stroke="currentColor" d="M13.414 1.207v3h-12M1.414 4.207l3.5-3.5M1.414 4.207l3.5 3.5" />
        </symbol>
    </defs>
</svg>